<mxfile host="app.diagrams.net" agent="Mozilla/5.0 (Windows NT 10.0; Win64; x64) AppleWebKit/537.36 (KHTML, like Gecko) Chrome/134.0.0.0 Safari/537.36" version="26.2.8">
  <diagram name="Page-1" id="EvhJuES_8ElgI_UpA-mD">
    <mxGraphModel dx="1606" dy="865" grid="1" gridSize="10" guides="1" tooltips="1" connect="1" arrows="1" fold="1" page="1" pageScale="1" pageWidth="1169" pageHeight="827" background="none" math="0" shadow="0">
      <root>
        <mxCell id="0" />
        <mxCell id="1" parent="0" />
        <mxCell id="8Bq70vaEWXNN0L7PMjFJ-12" value="" style="group" vertex="1" connectable="0" parent="1">
          <mxGeometry x="350" y="250" width="300" height="577" as="geometry" />
        </mxCell>
        <mxCell id="8Bq70vaEWXNN0L7PMjFJ-9" value="&lt;font style=&quot;font-size: 26px;&quot;&gt;crm_prd_info&lt;/font&gt;" style="swimlane;fontStyle=0;childLayout=stackLayout;horizontal=1;startSize=30;horizontalStack=0;resizeParent=1;resizeParentMax=0;resizeLast=0;collapsible=1;marginBottom=0;whiteSpace=wrap;html=1;fillColor=#dae8fc;strokeColor=#6c8ebf;rounded=1;container=0;" vertex="1" parent="8Bq70vaEWXNN0L7PMjFJ-12">
          <mxGeometry y="37.27272727272725" width="260.00000000000006" height="75.45454545454544" as="geometry" />
        </mxCell>
        <mxCell id="8Bq70vaEWXNN0L7PMjFJ-11" value="&lt;span style=&quot;font-size: 20px;&quot;&gt;Current &amp;amp; History Product Information&lt;/span&gt;" style="text;html=1;align=center;verticalAlign=middle;whiteSpace=wrap;rounded=0;container=0;" vertex="1" parent="8Bq70vaEWXNN0L7PMjFJ-12">
          <mxGeometry x="12.035185185185185" width="235.92592592592598" height="27.272727272727273" as="geometry" />
        </mxCell>
        <mxCell id="8Bq70vaEWXNN0L7PMjFJ-10" value="&lt;span style=&quot;font-size: 20px;&quot;&gt;prd_key&lt;/span&gt;" style="text;strokeColor=none;fillColor=none;align=left;verticalAlign=middle;spacingLeft=4;spacingRight=4;overflow=hidden;points=[[0,0.5],[1,0.5]];portConstraint=eastwest;rotatable=0;whiteSpace=wrap;html=1;container=0;" vertex="1" parent="8Bq70vaEWXNN0L7PMjFJ-12">
          <mxGeometry y="67.27272727272725" width="260.00000000000006" height="45.454545454545446" as="geometry" />
        </mxCell>
        <mxCell id="8Bq70vaEWXNN0L7PMjFJ-78" value="PRODUCT" style="text;html=1;strokeColor=#d79b00;fillColor=#ffe6cc;align=center;verticalAlign=middle;whiteSpace=wrap;overflow=hidden;fontSize=20;fontStyle=1" vertex="1" parent="8Bq70vaEWXNN0L7PMjFJ-12">
          <mxGeometry y="100" width="260" height="40" as="geometry" />
        </mxCell>
        <mxCell id="8Bq70vaEWXNN0L7PMjFJ-40" value="Integration Model&lt;font style=&quot;font-size: 14px;&quot;&gt;&lt;span style=&quot;font-weight: normal;&quot;&gt;(How Two Tables are related)&lt;/span&gt;&lt;/font&gt;" style="text;html=1;align=left;verticalAlign=middle;whiteSpace=wrap;rounded=0;fontStyle=1;fontSize=30;" vertex="1" parent="1">
          <mxGeometry width="500" height="70" as="geometry" />
        </mxCell>
        <mxCell id="8Bq70vaEWXNN0L7PMjFJ-46" value="" style="group" vertex="1" connectable="0" parent="1">
          <mxGeometry x="30" y="339" width="250" height="150" as="geometry" />
        </mxCell>
        <mxCell id="8Bq70vaEWXNN0L7PMjFJ-41" value="&lt;span style=&quot;font-size: 26px;&quot;&gt;crm_sales_details&lt;/span&gt;" style="swimlane;fontStyle=0;childLayout=stackLayout;horizontal=1;startSize=30;horizontalStack=0;resizeParent=1;resizeParentMax=0;resizeLast=0;collapsible=1;marginBottom=0;whiteSpace=wrap;html=1;fillColor=#dae8fc;strokeColor=#6c8ebf;rounded=1;" vertex="1" parent="8Bq70vaEWXNN0L7PMjFJ-46">
          <mxGeometry y="60" width="250" height="130" as="geometry" />
        </mxCell>
        <mxCell id="8Bq70vaEWXNN0L7PMjFJ-42" value="&lt;span style=&quot;font-size: 20px;&quot;&gt;prd_key&lt;/span&gt;" style="text;strokeColor=none;fillColor=none;align=left;verticalAlign=middle;spacingLeft=4;spacingRight=4;overflow=hidden;points=[[0,0.5],[1,0.5]];portConstraint=eastwest;rotatable=0;whiteSpace=wrap;html=1;" vertex="1" parent="8Bq70vaEWXNN0L7PMjFJ-41">
          <mxGeometry y="30" width="250" height="30" as="geometry" />
        </mxCell>
        <mxCell id="8Bq70vaEWXNN0L7PMjFJ-43" value="&lt;span style=&quot;font-size: 20px;&quot;&gt;cust_id&lt;/span&gt;" style="text;strokeColor=none;fillColor=none;align=left;verticalAlign=middle;spacingLeft=4;spacingRight=4;overflow=hidden;points=[[0,0.5],[1,0.5]];portConstraint=eastwest;rotatable=0;whiteSpace=wrap;html=1;" vertex="1" parent="8Bq70vaEWXNN0L7PMjFJ-41">
          <mxGeometry y="60" width="250" height="30" as="geometry" />
        </mxCell>
        <mxCell id="8Bq70vaEWXNN0L7PMjFJ-80" value="SALES" style="text;html=1;strokeColor=#9673a6;fillColor=#e1d5e7;align=center;verticalAlign=middle;whiteSpace=wrap;overflow=hidden;fontSize=20;fontStyle=1" vertex="1" parent="8Bq70vaEWXNN0L7PMjFJ-41">
          <mxGeometry y="90" width="250" height="40" as="geometry" />
        </mxCell>
        <mxCell id="8Bq70vaEWXNN0L7PMjFJ-45" value="&lt;span style=&quot;font-size: 20px;&quot;&gt;Transactional Records about Sales and Orders&lt;/span&gt;" style="text;html=1;align=center;verticalAlign=middle;whiteSpace=wrap;rounded=0;" vertex="1" parent="8Bq70vaEWXNN0L7PMjFJ-46">
          <mxGeometry width="250" height="60" as="geometry" />
        </mxCell>
        <mxCell id="8Bq70vaEWXNN0L7PMjFJ-7" value="" style="group" vertex="1" connectable="0" parent="1">
          <mxGeometry x="365" y="500" width="230" height="100" as="geometry" />
        </mxCell>
        <mxCell id="8Bq70vaEWXNN0L7PMjFJ-2" value="&lt;font style=&quot;font-size: 26px;&quot;&gt;crm_cust_info&lt;/font&gt;" style="swimlane;fontStyle=0;childLayout=stackLayout;horizontal=1;startSize=30;horizontalStack=0;resizeParent=1;resizeParentMax=0;resizeLast=0;collapsible=1;marginBottom=0;whiteSpace=wrap;html=1;fillColor=#dae8fc;strokeColor=#6c8ebf;rounded=1;" vertex="1" parent="8Bq70vaEWXNN0L7PMjFJ-7">
          <mxGeometry y="30" width="230" height="150" as="geometry" />
        </mxCell>
        <mxCell id="8Bq70vaEWXNN0L7PMjFJ-3" value="&lt;font style=&quot;font-size: 20px;&quot;&gt;cust_id&lt;/font&gt;" style="text;strokeColor=none;fillColor=none;align=left;verticalAlign=middle;spacingLeft=4;spacingRight=4;overflow=hidden;points=[[0,0.5],[1,0.5]];portConstraint=eastwest;rotatable=0;whiteSpace=wrap;html=1;" vertex="1" parent="8Bq70vaEWXNN0L7PMjFJ-2">
          <mxGeometry y="30" width="230" height="40" as="geometry" />
        </mxCell>
        <mxCell id="8Bq70vaEWXNN0L7PMjFJ-53" value="&lt;font style=&quot;font-size: 20px;&quot;&gt;cust_key&lt;/font&gt;" style="text;strokeColor=none;fillColor=none;align=left;verticalAlign=middle;spacingLeft=4;spacingRight=4;overflow=hidden;points=[[0,0.5],[1,0.5]];portConstraint=eastwest;rotatable=0;whiteSpace=wrap;html=1;" vertex="1" parent="8Bq70vaEWXNN0L7PMjFJ-2">
          <mxGeometry y="70" width="230" height="40" as="geometry" />
        </mxCell>
        <mxCell id="8Bq70vaEWXNN0L7PMjFJ-81" value="CUSTOMER" style="text;html=1;strokeColor=#b85450;fillColor=#f8cecc;align=center;verticalAlign=middle;whiteSpace=wrap;overflow=hidden;fontSize=20;fontStyle=1" vertex="1" parent="8Bq70vaEWXNN0L7PMjFJ-2">
          <mxGeometry y="110" width="230" height="40" as="geometry" />
        </mxCell>
        <mxCell id="8Bq70vaEWXNN0L7PMjFJ-6" value="&lt;font style=&quot;font-size: 20px;&quot;&gt;Customer Information&lt;/font&gt;" style="text;html=1;align=center;verticalAlign=middle;whiteSpace=wrap;rounded=0;" vertex="1" parent="8Bq70vaEWXNN0L7PMjFJ-7">
          <mxGeometry x="5" width="220" height="30" as="geometry" />
        </mxCell>
        <mxCell id="8Bq70vaEWXNN0L7PMjFJ-47" style="edgeStyle=orthogonalEdgeStyle;rounded=0;orthogonalLoop=1;jettySize=auto;html=1;entryX=0;entryY=0.5;entryDx=0;entryDy=0;" edge="1" parent="1" source="8Bq70vaEWXNN0L7PMjFJ-42" target="8Bq70vaEWXNN0L7PMjFJ-10">
          <mxGeometry relative="1" as="geometry" />
        </mxCell>
        <mxCell id="8Bq70vaEWXNN0L7PMjFJ-48" style="edgeStyle=orthogonalEdgeStyle;rounded=0;orthogonalLoop=1;jettySize=auto;html=1;entryX=0;entryY=0.5;entryDx=0;entryDy=0;" edge="1" parent="1" source="8Bq70vaEWXNN0L7PMjFJ-43" target="8Bq70vaEWXNN0L7PMjFJ-3">
          <mxGeometry relative="1" as="geometry" />
        </mxCell>
        <mxCell id="8Bq70vaEWXNN0L7PMjFJ-56" style="edgeStyle=orthogonalEdgeStyle;rounded=0;orthogonalLoop=1;jettySize=auto;html=1;" edge="1" parent="1" source="8Bq70vaEWXNN0L7PMjFJ-52" target="8Bq70vaEWXNN0L7PMjFJ-53">
          <mxGeometry relative="1" as="geometry" />
        </mxCell>
        <mxCell id="8Bq70vaEWXNN0L7PMjFJ-61" style="edgeStyle=orthogonalEdgeStyle;rounded=0;orthogonalLoop=1;jettySize=auto;html=1;entryX=1;entryY=0.5;entryDx=0;entryDy=0;" edge="1" parent="1" source="8Bq70vaEWXNN0L7PMjFJ-60" target="8Bq70vaEWXNN0L7PMjFJ-53">
          <mxGeometry relative="1" as="geometry" />
        </mxCell>
        <mxCell id="8Bq70vaEWXNN0L7PMjFJ-66" style="edgeStyle=orthogonalEdgeStyle;rounded=0;orthogonalLoop=1;jettySize=auto;html=1;entryX=1;entryY=0.5;entryDx=0;entryDy=0;" edge="1" parent="1" source="8Bq70vaEWXNN0L7PMjFJ-65" target="8Bq70vaEWXNN0L7PMjFJ-10">
          <mxGeometry relative="1" as="geometry" />
        </mxCell>
        <mxCell id="8Bq70vaEWXNN0L7PMjFJ-74" value="" style="rounded=1;whiteSpace=wrap;html=1;fillColor=none;dashed=1;container=0;" vertex="1" parent="1">
          <mxGeometry x="670" y="117" width="470" height="680" as="geometry" />
        </mxCell>
        <mxCell id="8Bq70vaEWXNN0L7PMjFJ-75" value="&lt;span style=&quot;font-size: 30px;&quot;&gt;&lt;b&gt;ERP&lt;/b&gt;&lt;/span&gt;" style="text;html=1;align=center;verticalAlign=middle;whiteSpace=wrap;rounded=0;fillColor=#dae8fc;strokeColor=#6c8ebf;container=0;" vertex="1" parent="1">
          <mxGeometry x="842.5" y="100" width="105" height="30" as="geometry" />
        </mxCell>
        <mxCell id="8Bq70vaEWXNN0L7PMjFJ-50" value="&lt;span style=&quot;font-size: 26px;&quot;&gt;erp_cust_az12&lt;/span&gt;" style="swimlane;fontStyle=0;childLayout=stackLayout;horizontal=1;startSize=30;horizontalStack=0;resizeParent=1;resizeParentMax=0;resizeLast=0;collapsible=1;marginBottom=0;whiteSpace=wrap;html=1;fillColor=#d5e8d4;strokeColor=#82b366;rounded=1;container=0;" vertex="1" parent="1">
          <mxGeometry x="810" y="434.1660565585138" width="269.6296296296297" height="69.16543156967433" as="geometry" />
        </mxCell>
        <mxCell id="8Bq70vaEWXNN0L7PMjFJ-51" value="&lt;span style=&quot;font-size: 20px;&quot;&gt;Extra Costumer Information(Birthdate)&lt;/span&gt;" style="text;html=1;align=center;verticalAlign=middle;whiteSpace=wrap;rounded=0;container=0;" vertex="1" parent="1">
          <mxGeometry x="822.4809327846365" y="400" width="244.66392318244178" height="24.999553579400363" as="geometry" />
        </mxCell>
        <mxCell id="8Bq70vaEWXNN0L7PMjFJ-52" value="&lt;span style=&quot;font-size: 20px;&quot;&gt;cid&lt;/span&gt;" style="text;strokeColor=none;fillColor=none;align=left;verticalAlign=middle;spacingLeft=4;spacingRight=4;overflow=hidden;points=[[0,0.5],[1,0.5]];portConstraint=eastwest;rotatable=0;whiteSpace=wrap;html=1;container=0;" vertex="1" parent="1">
          <mxGeometry x="810" y="461.6655654958542" width="269.6296296296297" height="41.66592263233393" as="geometry" />
        </mxCell>
        <mxCell id="8Bq70vaEWXNN0L7PMjFJ-87" value="CUSTOMER" style="text;html=1;strokeColor=#b85450;fillColor=#f8cecc;align=center;verticalAlign=middle;whiteSpace=wrap;overflow=hidden;fontSize=20;fontStyle=1;container=0;" vertex="1" parent="1">
          <mxGeometry x="814.81" y="503.33" width="260" height="40" as="geometry" />
        </mxCell>
        <mxCell id="8Bq70vaEWXNN0L7PMjFJ-58" value="&lt;span style=&quot;font-size: 26px;&quot;&gt;erp_loc_a101&lt;/span&gt;" style="swimlane;fontStyle=0;childLayout=stackLayout;horizontal=1;startSize=30;horizontalStack=0;resizeParent=1;resizeParentMax=0;resizeLast=0;collapsible=1;marginBottom=0;whiteSpace=wrap;html=1;fillColor=#d5e8d4;strokeColor=#82b366;rounded=1;container=0;" vertex="1" parent="1">
          <mxGeometry x="810" y="674.5427272727272" width="260.00000000000006" height="75.45454545454544" as="geometry" />
        </mxCell>
        <mxCell id="8Bq70vaEWXNN0L7PMjFJ-59" value="&lt;span style=&quot;font-size: 20px;&quot;&gt;Location of Customers (Country)&lt;/span&gt;" style="text;html=1;align=center;verticalAlign=middle;whiteSpace=wrap;rounded=0;container=0;" vertex="1" parent="1">
          <mxGeometry x="822.0351851851851" y="640" width="235.92592592592598" height="27.272727272727273" as="geometry" />
        </mxCell>
        <mxCell id="8Bq70vaEWXNN0L7PMjFJ-60" value="&lt;span style=&quot;font-size: 20px;&quot;&gt;cid&lt;/span&gt;" style="text;strokeColor=none;fillColor=none;align=left;verticalAlign=middle;spacingLeft=4;spacingRight=4;overflow=hidden;points=[[0,0.5],[1,0.5]];portConstraint=eastwest;rotatable=0;whiteSpace=wrap;html=1;container=0;" vertex="1" parent="1">
          <mxGeometry x="810" y="707.2727272727273" width="260.00000000000006" height="45.454545454545446" as="geometry" />
        </mxCell>
        <mxCell id="8Bq70vaEWXNN0L7PMjFJ-86" value="CUSTOMER" style="text;html=1;strokeColor=#b85450;fillColor=#f8cecc;align=center;verticalAlign=middle;whiteSpace=wrap;overflow=hidden;fontSize=20;fontStyle=1;container=0;" vertex="1" parent="1">
          <mxGeometry x="810" y="750" width="260" height="40" as="geometry" />
        </mxCell>
        <mxCell id="8Bq70vaEWXNN0L7PMjFJ-63" value="&lt;span style=&quot;font-size: 26px;&quot;&gt;erp_px_cat_g1v2&lt;/span&gt;" style="swimlane;fontStyle=0;childLayout=stackLayout;horizontal=1;startSize=30;horizontalStack=0;resizeParent=1;resizeParentMax=0;resizeLast=0;collapsible=1;marginBottom=0;whiteSpace=wrap;html=1;fillColor=#d5e8d4;strokeColor=#82b366;rounded=1;container=0;" vertex="1" parent="1">
          <mxGeometry x="810" y="217.27272727272725" width="260.00000000000006" height="115.45454545454544" as="geometry" />
        </mxCell>
        <mxCell id="8Bq70vaEWXNN0L7PMjFJ-64" value="&lt;span style=&quot;font-size: 20px;&quot;&gt;Product Categories&lt;/span&gt;" style="text;html=1;align=center;verticalAlign=middle;whiteSpace=wrap;rounded=0;container=0;" vertex="1" parent="1">
          <mxGeometry x="822.0351851851851" y="180" width="235.92592592592598" height="27.272727272727273" as="geometry" />
        </mxCell>
        <mxCell id="8Bq70vaEWXNN0L7PMjFJ-65" value="&lt;span style=&quot;font-size: 20px;&quot;&gt;id&lt;/span&gt;" style="text;strokeColor=none;fillColor=none;align=left;verticalAlign=middle;spacingLeft=4;spacingRight=4;overflow=hidden;points=[[0,0.5],[1,0.5]];portConstraint=eastwest;rotatable=0;whiteSpace=wrap;html=1;container=0;" vertex="1" parent="1">
          <mxGeometry x="810" y="247.27272727272725" width="260.00000000000006" height="45.454545454545446" as="geometry" />
        </mxCell>
        <mxCell id="8Bq70vaEWXNN0L7PMjFJ-79" value="PRODUCT" style="text;html=1;strokeColor=#d79b00;fillColor=#ffe6cc;align=center;verticalAlign=middle;whiteSpace=wrap;overflow=hidden;fontSize=20;fontStyle=1;container=0;" vertex="1" parent="1">
          <mxGeometry x="810" y="292.7272727272727" width="260.00000000000006" height="40" as="geometry" />
        </mxCell>
        <mxCell id="8Bq70vaEWXNN0L7PMjFJ-69" value="" style="group" vertex="1" connectable="0" parent="1">
          <mxGeometry x="30" y="117" width="610" height="710" as="geometry" />
        </mxCell>
        <mxCell id="8Bq70vaEWXNN0L7PMjFJ-67" value="&lt;span style=&quot;color: rgba(0, 0, 0, 0); font-family: monospace; font-size: 0px; text-align: start; text-wrap-mode: nowrap;&quot;&gt;%3CmxGraphModel%3E%3Croot%3E%3CmxCell%20id%3D%220%22%2F%3E%3CmxCell%20id%3D%221%22%20parent%3D%220%22%2F%3E%3CmxCell%20id%3D%222%22%20value%3D%22%22%20style%3D%22group%22%20vertex%3D%221%22%20connectable%3D%220%22%20parent%3D%221%22%3E%3CmxGeometry%20x%3D%2220%22%20y%3D%2290%22%20width%3D%22610%22%20height%3D%22710%22%20as%3D%22geometry%22%2F%3E%3C%2FmxCell%3E%3CmxCell%20id%3D%223%22%20value%3D%22%22%20style%3D%22rounded%3D1%3BwhiteSpace%3Dwrap%3Bhtml%3D1%3BfillColor%3Dnone%3Bdashed%3D1%3B%22%20vertex%3D%221%22%20parent%3D%222%22%3E%3CmxGeometry%20y%3D%2230%22%20width%3D%22610%22%20height%3D%22680%22%20as%3D%22geometry%22%2F%3E%3C%2FmxCell%3E%3CmxCell%20id%3D%224%22%20value%3D%22%26lt%3Bb%26gt%3B%26lt%3Bfont%20style%3D%26quot%3Bfont-size%3A%2020px%3B%26quot%3B%26gt%3BCRM%26lt%3B%2Ffont%26gt%3B%26lt%3B%2Fb%26gt%3B%22%20style%3D%22text%3Bhtml%3D1%3Balign%3Dcenter%3BverticalAlign%3Dmiddle%3BwhiteSpace%3Dwrap%3Brounded%3D0%3B%22%20vertex%3D%221%22%20parent%3D%222%22%3E%3CmxGeometry%20x%3D%22250%22%20width%3D%2260%22%20height%3D%2230%22%20as%3D%22geometry%22%2F%3E%3C%2FmxCell%3E%3C%2Froot%3E%3C%2FmxGraphModel%3E&lt;/span&gt;" style="rounded=1;whiteSpace=wrap;html=1;fillColor=none;dashed=1;" vertex="1" parent="8Bq70vaEWXNN0L7PMjFJ-69">
          <mxGeometry width="610" height="680" as="geometry" />
        </mxCell>
        <mxCell id="8Bq70vaEWXNN0L7PMjFJ-68" value="&lt;b&gt;&lt;font style=&quot;font-size: 30px;&quot;&gt;CRM&lt;/font&gt;&lt;/b&gt;" style="text;html=1;align=center;verticalAlign=middle;whiteSpace=wrap;rounded=0;fillColor=#dae8fc;strokeColor=#6c8ebf;" vertex="1" parent="8Bq70vaEWXNN0L7PMjFJ-69">
          <mxGeometry x="252.5" y="-17" width="105" height="30" as="geometry" />
        </mxCell>
      </root>
    </mxGraphModel>
  </diagram>
</mxfile>
